<svg xmlns="http://www.w3.org/2000/svg" viewBox="0 0 1018 510">
  <defs>
    <style>
      .cls-1 {
        fill: #c7c7c7;
      }
    </style>
  </defs>
  <path id="Union_1" data-name="Union 1" class="cls-1" d="M-656.576,52.8A253.838,253.838,0,0,1-803,99,253.8,253.8,0,0,1-929.649,65.376,185.666,185.666,0,0,1-1036.5,99a185.853,185.853,0,0,1-128.9-51.711A141.726,141.726,0,0,1-1275,99,142,142,0,0,1-1417-43a142,142,0,0,1,142-142,141.336,141.336,0,0,1,69.641,18.221A186.515,186.515,0,0,1-1036.5-274c2.452,0,4.883.047,7.312.141A254.99,254.99,0,0,1-803-411c125.841,0,230.392,91.152,251.224,211.036,1.088-.023,2.183-.035,3.276-.035A149.5,149.5,0,0,1-399-50.5,149.5,149.5,0,0,1-548.5,99,149.079,149.079,0,0,1-656.576,52.8Z" transform="translate(1417 411)"/>
</svg>
