<svg xmlns="http://www.w3.org/2000/svg" viewBox="0 0 1018 777.001">
  <defs>
    <style>
      .cls-1 {
        fill: #1492e6;
      }

      .cls-2 {
        fill: #c7c7c7;
      }
    </style>
  </defs>
  <g id="rain" transform="translate(-470 -169)">
    <path id="raindrops" class="cls-1" d="M-933-128a35,35,0,0,1,35-35,35,35,0,0,1,35,35,35,35,0,0,1-35,35A35,35,0,0,1-933-128Zm-192-15a35,35,0,0,1,35-35,35,35,0,0,1,35,35,35,35,0,0,1-35,35A35,35,0,0,1-1125-143Zm-181-27.5a27.5,27.5,0,0,1,27.5-27.5,27.5,27.5,0,0,1,27.5,27.5,27.5,27.5,0,0,1-27.5,27.5A27.5,27.5,0,0,1-1306-170.5Zm59-118.5a35,35,0,0,1,35-35,35,35,0,0,1,35,35,35,35,0,0,1-35,35A35,35,0,0,1-1247-289Zm162-12.5a39.5,39.5,0,0,1,39.5-39.5,39.5,39.5,0,0,1,39.5,39.5,39.5,39.5,0,0,1-39.5,39.5A39.5,39.5,0,0,1-1085-301.5ZM-818-341a35,35,0,0,1,35-35,35,35,0,0,1,35,35,35,35,0,0,1-35,35A35,35,0,0,1-818-341Zm-599-22a48,48,0,0,1,48-48,48,48,0,0,1,48,48,48,48,0,0,1-48,48A48,48,0,0,1-1417-363Zm484-10a21,21,0,0,1,21-21,21,21,0,0,1,21,21,21,21,0,0,1-21,21A21,21,0,0,1-933-373Z" transform="translate(2086 1039)"/>
    <path id="cloud" class="cls-2" d="M-656.576,52.8A253.838,253.838,0,0,1-803,99,253.8,253.8,0,0,1-929.649,65.376,185.666,185.666,0,0,1-1036.5,99a185.853,185.853,0,0,1-128.9-51.711A141.726,141.726,0,0,1-1275,99,142,142,0,0,1-1417-43a142,142,0,0,1,142-142,141.336,141.336,0,0,1,69.641,18.221A186.515,186.515,0,0,1-1036.5-274c2.452,0,4.883.047,7.312.141A254.99,254.99,0,0,1-803-411c125.841,0,230.392,91.152,251.224,211.036,1.088-.023,2.183-.035,3.276-.035A149.5,149.5,0,0,1-399-50.5,149.5,149.5,0,0,1-548.5,99,149.079,149.079,0,0,1-656.576,52.8Z" transform="translate(1887 580)"/>
  </g>
</svg>
